# xmcd
#
# Track frame offsets: 
#        150
#        19254
#        36600
#        54251
#        68008
#        91091
#        110416
#        134819
#        157944
#        183667
#        201634
#        226660
#        255656
#        284519
#        309670
#
# Disc length: 4367 seconds
#
# Revision: 0
# Processed by: cddbd v1.5.2PL0 Copyright (c) Steve Scherf et al.
# Submitted via: ExactAudioCopy v0.95b4
#
DISCID=d9110d0f
DTITLE=Phil  Cody - Pesina, Italy
DYEAR=1997
DGENRE=Acoustic
TTITLE0=Lonliest Girl In The World
TTITLE1=Soldiers
TTITLE2=Pancho and Lefty
TTITLE3=I Am A Thief
TTITLE4=Death Row
TTITLE5=Solana Beach
TTITLE6=The French Postcard
TTITLE7=Junko Partner
TTITLE8=Now That I Know
TTITLE9=City Of Destruction
TTITLE10=Unmarried Ladies
TTITLE11=A Song For You
TTITLE12=Stages
TTITLE13=Spencer's Song
TTITLE14=Hats Off
EXTD=
EXTT0=
EXTT1=
EXTT2=
EXTT3=
EXTT4=
EXTT5=
EXTT6=
EXTT7=
EXTT8=
EXTT9=
EXTT10=
EXTT11=
EXTT12=
EXTT13=
EXTT14=
PLAYORDER=
